<?xml version="1.0" encoding="UTF-8"?>
<svg width="126px" height="28px" viewBox="0 0 126 28" version="1.1" xmlns="http://www.w3.org/2000/svg" xmlns:xlink="http://www.w3.org/1999/xlink">
    <!-- Generator: Sketch 60 (88103) - https://sketch.com -->
    <title>logo_light</title>
    <desc>Created with Sketch.</desc>
    <g id="current" stroke="none" stroke-width="1" fill="none" fill-rule="evenodd">
        <g id="07-babules-anketa-step-04-mobile@2x" transform="translate(-31.000000, -34.000000)" fill-rule="nonzero">
            <g id="logo" transform="translate(30.000000, 34.000000)">
                <g id="logo_light" transform="translate(1.000000, 0.000000)">
                    <path d="M94.8973741,0 C102.506071,0 108.674139,6.2680135 108.674139,14 C108.674139,21.7319865 102.506071,28 94.8973741,28 C87.2886767,28 81.1206087,21.7319865 81.1206087,14 C81.1206087,6.2680135 87.2886767,0 94.8973741,0 Z M95.8669995,5.11293471 C91.6880474,5.11293471 88.225487,8.09773471 87.4135763,12.077468 L87.4135763,12.077468 L86.3867481,12.077468 C86.1479508,12.077468 85.956913,12.295868 85.956913,12.5385347 L85.956913,12.5385347 L85.956913,12.951068 C85.956913,13.1937347 86.1479508,13.4121347 86.3867481,13.4121347 L86.3867481,13.4121347 L87.2464182,13.4121347 L87.2468003,14.1034435 C87.2483286,14.407068 87.2559701,14.698268 87.2941777,14.989468 L87.2941777,14.989468 L86.3867481,14.989468 C86.1479508,14.989468 85.956913,15.207868 85.956913,15.4505347 L85.956913,15.4505347 L85.956913,15.863068 C85.956913,16.1057347 86.1479508,16.3241347 86.3867481,16.3241347 L86.3867481,16.3241347 L87.5807344,16.3241347 C88.6075626,19.9641347 91.9268446,22.5849347 95.8669995,22.5849347 C97.9922952,22.5849347 100.045952,21.832668 101.669773,20.231068 C101.836931,20.0612014 101.860811,19.7457347 101.693653,19.575868 L101.693653,19.575868 L99.8310342,17.5617347 C99.6877558,17.391868 99.3773194,17.391868 99.2101613,17.537468 C98.3504911,18.2897347 97.1326251,18.702268 96.0102779,18.702268 C94.2431781,18.702268 92.7626351,17.755868 91.9507244,16.3241347 L91.9507244,16.3241347 L95.6282023,16.3241347 C95.8908793,16.3241347 96.0819171,16.1300014 96.0819171,15.8873347 L96.0819171,15.8873347 L96.0819171,15.4505347 C96.0819171,15.207868 95.8908793,14.989468 95.6282023,14.989468 L95.6282023,14.989468 L91.4492501,14.989468 C91.3537312,14.6012014 91.3059718,14.188668 91.3059718,13.7761347 L91.3059718,13.7761347 L91.3059718,13.4364014 L96.5833913,13.4364014 C96.8460683,13.4364014 97.0371062,13.242268 97.0371062,12.9996014 L97.0371062,12.9996014 L97.0371062,12.5385347 C97.0371062,12.295868 96.8460683,12.077468 96.5833913,12.077468 L96.5833913,12.077468 L91.5686487,12.077468 C92.2134014,10.184668 93.8611025,8.77720137 95.9863982,8.77720137 C97.1565048,8.77720137 98.3266114,9.21400137 99.2101613,10.0148014 L99.2101613,10.0148014 L99.2538302,10.0537292 C99.4204355,10.1834884 99.6539262,10.1705125 99.8071544,10.0148014 L99.8071544,10.0148014 L101.669773,8.04920137 C101.860811,7.85506804 101.860811,7.56386804 101.645893,7.36973471 C100.022072,5.86520137 98.2549722,5.11293471 95.8669995,5.11293471 Z" id="logo" fill="#66B41F"></path>
                    <path d="M119.961185,3.67560137 C120.129568,3.67560137 120.267334,3.73004527 120.374487,3.83893471 C120.481641,3.94782414 120.535216,4.08782274 120.535216,4.25893471 L120.535216,5.93893471 C121.545518,6.12560231 122.418037,6.45615456 123.152802,6.93060137 C123.887566,7.40504819 124.450112,7.94948719 124.840456,8.56393471 C125.230799,9.17838222 125.441275,9.77337627 125.471891,10.3489347 C125.471891,10.4889354 125.425969,10.6094898 125.334123,10.7106014 C125.242277,10.811713 125.127472,10.862268 124.989704,10.862268 L121.775125,10.862268 C121.423051,10.862268 121.162825,10.7222694 120.994442,10.442268 C120.902596,10.1155997 120.661505,9.83949139 120.271162,9.61393471 C119.880818,9.38837802 119.410117,9.27560137 118.859043,9.27560137 C118.216124,9.27560137 117.718635,9.39226687 117.36656,9.62560137 C117.014486,9.85893587 116.838451,10.2011547 116.838451,10.652268 C116.838451,11.1033814 117.068061,11.4572668 117.527289,11.7139347 C117.986517,11.9706027 118.836076,12.2311556 120.075991,12.4956014 C121.514905,12.7600471 122.662957,13.0905994 123.520182,13.487268 C124.377407,13.8839367 125.005009,14.3972649 125.403007,15.027268 C125.801004,15.6572712 126,16.4544854 126,17.4189347 C126,18.7878304 125.506338,19.9155969 124.518998,20.802268 C123.531658,21.6889391 122.203744,22.2411558 120.535216,22.4589347 L120.535216,24.092268 C120.535216,24.26338 120.481641,24.4033786 120.374487,24.512268 C120.267334,24.6211575 120.129568,24.6756014 119.961185,24.6756014 L117.963554,24.6756014 C117.810478,24.6756014 117.676538,24.6211575 117.561731,24.512268 C117.446924,24.4033786 117.389522,24.26338 117.389522,24.092268 L117.389522,22.4589347 C116.241452,22.318934 115.265608,22.0272703 114.461959,21.5839347 C113.65831,21.1405992 113.053669,20.5922713 112.648018,19.9389347 C112.242367,19.2855981 112.024237,18.5933828 111.993622,17.862268 C111.993622,17.7222673 112.043371,17.6056018 112.14287,17.512268 C112.24237,17.4189342 112.361002,17.372268 112.49877,17.372268 L115.55262,17.372268 C115.751618,17.372268 115.904692,17.4033788 116.011845,17.4656014 C116.118998,17.5278239 116.241457,17.6367117 116.379226,17.792268 C116.853761,18.6478279 117.726281,19.0756014 118.996811,19.0756014 C119.823421,19.0756014 120.462503,18.9472693 120.914077,18.6906014 C121.365651,18.4339334 121.591435,18.0800481 121.591435,17.6289347 C121.591435,17.3022664 121.472803,17.0339358 121.235535,16.8239347 C120.998268,16.6139337 120.630891,16.4272689 120.133394,16.2639347 C119.70223,16.1223784 119.095735,15.9662192 118.313893,15.7954535 L117.940592,15.7156014 C116.088373,15.342268 114.703057,14.7744941 113.784601,14.012268 C112.866146,13.250042 112.406925,12.161164 112.406925,10.7456014 C112.406925,9.48559507 112.850838,8.41616132 113.738679,7.53726804 C114.626519,6.65837476 115.843455,6.11004691 117.389522,5.89226804 L117.389522,4.25893471 C117.389522,4.08782274 117.446924,3.94782414 117.561731,3.83893471 C117.676538,3.73004527 117.810478,3.67560137 117.963554,3.67560137 L119.961185,3.67560137 Z M11.6872893,6.00893471 C11.8556728,6.00893471 11.9972659,6.06726746 12.1120729,6.18393471 C12.2268798,6.30060196 12.2842825,6.44448941 12.2842825,6.61560137 L12.2842825,9.06560137 C12.2842825,9.23671334 12.2268798,9.38060079 12.1120729,9.49726804 C11.9972659,9.61393529 11.8556728,9.67226804 11.6872893,9.67226804 L4.31671982,9.67226804 L4.31671982,12.262268 L7.39353075,12.262268 C9.24574958,12.262268 10.7076028,12.7055969 11.7791344,13.592268 C12.8506659,14.4789391 13.3864237,15.6922603 13.3864237,17.232268 C13.3864237,18.2122729 13.1529864,19.0872642 12.6861048,19.857268 C12.2192232,20.6272719 11.5342186,21.2339325 10.6310706,21.677268 C9.72792259,22.1206036 8.64875343,22.342268 7.39353075,22.342268 L0.574031891,22.342268 C0.420955954,22.342268 0.287016519,22.2839353 0.172209567,22.167268 C0.057402615,22.0506008 3.55271368e-14,21.914491 3.55271368e-14,21.7589347 L3.55271368e-14,6.61560137 C3.55271368e-14,6.44448941 0.053575774,6.30060196 0.160728929,6.18393471 C0.267882085,6.06726746 0.405648361,6.00893471 0.574031891,6.00893471 L11.6872893,6.00893471 Z M23.6271526,6.00893471 C24.0863781,6.00893471 24.3925277,6.23448801 24.5456036,6.68560137 L29.8955809,21.642268 C29.9108885,21.6889349 29.9185421,21.7589342 29.9185421,21.852268 C29.9185421,21.9767131 29.8687932,22.0894898 29.7692938,22.1906014 C29.6697945,22.291713 29.5588161,22.342268 29.4363554,22.342268 L26.4513895,22.342268 C26.0840073,22.342268 25.8237821,22.1711586 25.6707062,21.8289347 L24.8441002,19.5656014 L18.828246,19.5656014 L18.0016401,21.8289347 C17.8485642,22.1711586 17.588339,22.342268 17.2209567,22.342268 L14.2359909,22.342268 C14.1135301,22.342268 14.0025518,22.291713 13.9030524,22.1906014 C13.803553,22.0894898 13.7538041,21.9767131 13.7538041,21.852268 C13.7538041,21.7589342 13.7614578,21.6889349 13.7767654,21.642268 L19.1267426,6.68560137 C19.2798185,6.23448801 19.5859658,6.00893471 20.0451936,6.00893471 L23.6271526,6.00893471 Z M43.3508884,6.00893471 C43.5192719,6.00893471 43.660865,6.06726746 43.775672,6.18393471 C43.8904789,6.30060196 43.9478815,6.44448941 43.9478815,6.61560137 L43.9478815,9.06560137 C43.9478815,9.23671334 43.8904789,9.38060079 43.775672,9.49726804 C43.660865,9.61393529 43.5192719,9.67226804 43.3508884,9.67226804 L35.9803189,9.67226804 L35.9803189,12.262268 L39.0571298,12.262268 C40.9093487,12.262268 42.3712019,12.7055969 43.4427335,13.592268 C44.514265,14.4789391 45.0500228,15.6922603 45.0500228,17.232268 C45.0500228,18.2122729 44.8165855,19.0872642 44.3497039,19.857268 C43.8828223,20.6272719 43.1978177,21.2339325 42.2946697,21.677268 C41.3915217,22.1206036 40.3123525,22.342268 39.0571298,22.342268 L32.237631,22.342268 C32.084555,22.342268 31.9506156,22.2839353 31.8358087,22.167268 C31.7210017,22.0506008 31.6635991,21.914491 31.6635991,21.7589347 L31.6635991,6.61560137 C31.6635991,6.44448941 31.7171749,6.30060196 31.824328,6.18393471 C31.9314812,6.06726746 32.0692474,6.00893471 32.237631,6.00893471 L43.3508884,6.00893471 Z M49.3437813,6.00893471 C49.619318,6.00893471 49.8412748,6.17226641 50.0096583,6.49893471 L53.1783144,12.8689347 L55.9336674,6.49893471 C56.0561282,6.17226641 56.2857386,6.00893471 56.6225057,6.00893471 L59.7911617,6.00893471 C59.9442377,6.00893471 60.0666966,6.05560091 60.1585421,6.14893471 C60.2503877,6.24226804 60.2963098,6.35893401 60.2963098,6.49893471 C60.2963098,6.63893541 60.2580414,6.78671171 60.1815034,6.94226804 L55.6351708,17.582268 C55.0994051,18.8422743 54.5904352,19.8028203 54.108246,20.4639347 C53.6260568,21.1250491 53.0367233,21.6033777 52.3402278,21.8989347 C51.6437323,22.1944917 50.7214636,22.342268 49.5733941,22.342268 L48.3105239,22.342268 C48.157448,22.342268 48.0235085,22.2839353 47.9087016,22.167268 C47.7938946,22.0506008 47.736492,21.914491 47.736492,21.7589347 L47.736492,19.1456014 C47.736492,18.9744894 47.7900678,18.830602 47.897221,18.7139347 C48.0043741,18.5972675 48.1421404,18.5389347 48.3105239,18.5389347 L49.2060137,18.5389347 C49.6346263,18.5389347 49.9981762,18.45338 50.2966743,18.282268 C50.5951723,18.1111561 50.866878,17.8311589 51.1117995,17.442268 L45.486287,6.73226804 C45.4403642,6.68560114 45.4174032,6.62337954 45.4174032,6.54560137 C45.4174032,6.40560067 45.470979,6.28115747 45.5781321,6.17226804 C45.6852853,6.06337861 45.8153979,6.00893471 45.9684738,6.00893471 L49.3437813,6.00893471 Z M75.7722096,6.00893471 C75.9405931,6.00893471 76.0821862,6.06726746 76.1969932,6.18393471 C76.3118001,6.30060196 76.3692027,6.44448941 76.3692027,6.61560137 L76.3692027,21.7589347 C76.3692027,21.9300467 76.3118001,22.0700453 76.1969932,22.1789347 C76.0821862,22.2878241 75.9405931,22.342268 75.7722096,22.342268 L72.6265148,22.342268 C72.4734389,22.342268 72.3394994,22.2839353 72.2246925,22.167268 C72.1098855,22.0506008 72.0524829,21.914491 72.0524829,21.7589347 L72.0524829,9.90560137 L67.9194533,9.90560137 L67.9194533,11.8656014 C67.9194533,14.510059 67.7510723,16.5633718 67.4143052,18.0256014 C67.0775382,19.4878309 66.4537631,20.5650424 65.5429613,21.257268 C64.6321595,21.9494937 63.3042456,22.3111568 61.55918,22.342268 C61.406104,22.342268 61.2683377,22.2800464 61.145877,22.1556014 C61.0234162,22.0311563 60.9621868,21.8911577 60.9621868,21.7356014 L60.9621868,19.1456014 C60.9621868,18.8189331 61.1535288,18.6167129 61.5362187,18.5389347 C62.3475211,18.398934 62.9215473,17.7144964 63.2583144,16.4856014 C63.5950814,15.2567063 63.7634624,13.5300569 63.7634624,11.3056014 L63.7634624,6.59226804 C63.7634624,6.42115607 63.820865,6.28115747 63.935672,6.17226804 C64.0504789,6.06337861 64.1920721,6.00893471 64.3604556,6.00893471 L75.7722096,6.00893471 Z M7.00318907,15.3189347 L4.31671982,15.3189347 L4.31671982,19.192268 L7.00318907,19.192268 C7.60018522,19.192268 8.06705982,19.0017144 8.40382688,18.6206014 C8.74059394,18.2394884 8.90897494,17.7689375 8.90897494,17.2089347 C8.90897494,16.6644875 8.74442078,16.2133809 8.41530752,15.8556014 C8.08619425,15.4978218 7.61549281,15.3189347 7.00318907,15.3189347 Z M38.6667882,15.3189347 L35.9803189,15.3189347 L35.9803189,19.192268 L38.6667882,19.192268 C39.2637843,19.192268 39.7306589,19.0017144 40.067426,18.6206014 C40.404193,18.2394884 40.572574,17.7689375 40.572574,17.2089347 C40.572574,16.6644875 40.4080199,16.2133809 40.0789066,15.8556014 C39.7497933,15.4978218 39.2790919,15.3189347 38.6667882,15.3189347 Z M21.8361731,10.1156014 L19.7926196,16.0656014 L23.8797267,16.0656014 L21.8361731,10.1156014 Z" id="Combined-Shape" fill="#040404"></path>
                </g>
            </g>
        </g>
    </g>
</svg>