<svg width="126" height="29" viewBox="0 0 126 29" fill="none" xmlns="http://www.w3.org/2000/svg">
    <path id="logo_w" fill-rule="evenodd" clip-rule="evenodd" d="M108.674 14.6755C108.674 22.4075 102.506 28.6755 94.8974 28.6755C87.2887 28.6755 81.1206 22.4075 81.1206 14.6755C81.1206 6.94355 87.2887 0.675537 94.8974 0.675537C102.506 0.675537 108.674 6.94355 108.674 14.6755ZM85.9569 16.5386C85.9569 16.7813 86.1479 16.9997 86.3867 16.9997H87.5807C88.6076 20.6397 91.9268 23.2605 95.867 23.2605C97.9923 23.2605 100.046 22.5082 101.67 20.9066C101.837 20.7367 101.861 20.4213 101.694 20.2514L99.831 18.2373C99.6878 18.0674 99.3773 18.0674 99.2102 18.213C98.3505 18.9653 97.1326 19.3778 96.0103 19.3778C94.2432 19.3778 92.7626 18.4314 91.9507 16.9997H95.6282C95.8909 16.9997 96.0819 16.8055 96.0819 16.5629V16.1261C96.0819 15.8834 95.8909 15.665 95.6282 15.665H91.4492C91.3537 15.2767 91.306 14.8642 91.306 14.4517V14.1119H96.5834C96.8461 14.1119 97.0371 13.9178 97.0371 13.6751V13.2141C97.0371 12.9714 96.8461 12.753 96.5834 12.753H91.5686C92.2134 10.8602 93.8611 9.45274 95.9864 9.45274C97.1565 9.45274 98.3266 9.88954 99.2102 10.6903L99.2538 10.7293C99.4204 10.859 99.6539 10.846 99.8072 10.6903L101.67 8.72474C101.861 8.5306 101.861 8.23941 101.646 8.04527C100.022 6.54074 98.255 5.78847 95.867 5.78847C91.688 5.78847 88.2255 8.77327 87.4136 12.753H86.3867C86.1479 12.753 85.9569 12.9714 85.9569 13.2141V13.6266C85.9569 13.8693 86.1479 14.0877 86.3867 14.0877H87.2464L87.2468 14.779C87.2483 15.0826 87.256 15.3738 87.2942 15.665H86.3867C86.1479 15.665 85.9569 15.8834 85.9569 16.1261V16.5386ZM117.964 21.6755C117.81 21.6755 117.677 21.6211 117.562 21.5122C117.447 21.4033 117.39 21.2633 117.39 21.0922V19.4589C116.241 19.3189 115.266 19.0272 114.462 18.5839C113.658 18.1405 113.054 17.5922 112.648 16.9389C112.242 16.2855 112.024 15.5933 111.994 14.8622C111.994 14.7222 112.043 14.6055 112.143 14.5122C112.242 14.4189 112.361 14.3722 112.499 14.3722H115.553C115.752 14.3722 115.905 14.4033 116.012 14.4655C116.119 14.5278 116.241 14.6366 116.379 14.7922C116.854 15.6478 117.726 16.0755 118.997 16.0755C119.823 16.0755 120.463 15.9472 120.914 15.6905C121.366 15.4339 121.591 15.08 121.591 14.6289C121.591 14.3022 121.473 14.0339 121.236 13.8239C120.998 13.6139 120.631 13.4272 120.133 13.2639C119.702 13.1223 119.096 12.9662 118.314 12.7954L117.941 12.7155C116.088 12.3422 114.703 11.7744 113.785 11.0122C112.866 10.25 112.407 9.1611 112.407 7.74554C112.407 6.48553 112.851 5.4161 113.739 4.5372C114.627 3.65831 115.843 3.10998 117.39 2.8922V1.25887C117.39 1.08776 117.447 0.94776 117.562 0.83887C117.677 0.729981 117.81 0.675537 117.964 0.675537H119.961C120.13 0.675537 120.267 0.729981 120.374 0.83887C120.482 0.94776 120.535 1.08776 120.535 1.25887V2.93887C121.546 3.12554 122.418 3.45609 123.153 3.93054C123.888 4.40498 124.45 4.94942 124.84 5.56387C125.231 6.17832 125.441 6.77331 125.472 7.34887C125.472 7.48887 125.426 7.60943 125.334 7.71054C125.242 7.81165 125.127 7.8622 124.99 7.8622H121.775C121.423 7.8622 121.163 7.72221 120.994 7.4422C120.903 7.11554 120.662 6.83943 120.271 6.61387C119.881 6.38831 119.41 6.27554 118.859 6.27554C118.216 6.27554 117.719 6.3922 117.367 6.62554C117.014 6.85887 116.838 7.20109 116.838 7.6522C116.838 8.10332 117.068 8.4572 117.527 8.71387C117.987 8.97054 118.836 9.23109 120.076 9.49554C121.515 9.75998 122.663 10.0905 123.52 10.4872C124.377 10.8839 125.005 11.3972 125.403 12.0272C125.801 12.6572 126 13.4544 126 14.4189C126 15.7878 125.506 16.9155 124.519 17.8022C123.532 18.6889 122.204 19.2411 120.535 19.4589V21.0922C120.535 21.2633 120.482 21.4033 120.374 21.5122C120.267 21.6211 120.13 21.6755 119.961 21.6755H117.964ZM0.574032 19.3422C0.420956 19.3422 0.287017 19.2839 0.17221 19.1672C0.0574026 19.0505 0 18.9144 0 18.7589V3.61554C0 3.44443 0.0535758 3.30054 0.160729 3.18387C0.267882 3.0672 0.405648 3.00887 0.574032 3.00887H11.6873C11.8557 3.00887 11.9973 3.0672 12.1121 3.18387C12.2269 3.30054 12.2843 3.44443 12.2843 3.61554V6.06554C12.2843 6.23665 12.2269 6.38054 12.1121 6.4972C11.9973 6.61387 11.8557 6.6722 11.6873 6.6722H4.31672V9.2622H7.39353C9.24575 9.2622 10.7076 9.70553 11.7791 10.5922C12.8507 11.4789 13.3864 12.6922 13.3864 14.2322C13.3864 15.2122 13.153 16.0872 12.6861 16.8572C12.2192 17.6272 11.5342 18.2339 10.6311 18.6772C9.72792 19.1205 8.64875 19.3422 7.39353 19.3422H0.574032ZM7.00319 16.1922C7.60019 16.1922 8.06706 16.0016 8.40383 15.6205C8.74059 15.2394 8.90898 14.7689 8.90898 14.2089C8.90898 13.6644 8.74442 13.2133 8.41531 12.8555C8.08619 12.4978 7.61549 12.3189 7.00319 12.3189H4.31672V16.1922H7.00319ZM13.9031 19.1905C14.0026 19.2917 14.1135 19.3422 14.236 19.3422H17.221C17.5883 19.3422 17.8486 19.1711 18.0016 18.8289L18.8282 16.5655H24.8441L25.6707 18.8289C25.8238 19.1711 26.084 19.3422 26.4514 19.3422H29.4364C29.5588 19.3422 29.6698 19.2917 29.7693 19.1905C29.8688 19.0894 29.9185 18.9766 29.9185 18.8522C29.9185 18.7589 29.9109 18.6889 29.8956 18.6422L24.5456 3.68554C24.3925 3.23442 24.0864 3.00887 23.6272 3.00887H20.0452C19.586 3.00887 19.2798 3.23442 19.1267 3.68554L13.7768 18.6422C13.7615 18.6889 13.7538 18.7589 13.7538 18.8522C13.7538 18.9766 13.8036 19.0894 13.9031 19.1905ZM23.8797 13.0655L21.8362 7.11554L19.7926 13.0655H23.8797ZM31.8358 19.1672C31.9506 19.2839 32.0846 19.3422 32.2376 19.3422H39.0571C40.3124 19.3422 41.3915 19.1205 42.2947 18.6772C43.1978 18.2339 43.8828 17.6272 44.3497 16.8572C44.8166 16.0872 45.05 15.2122 45.05 14.2322C45.05 12.6922 44.5143 11.4789 43.4427 10.5922C42.3712 9.70553 40.9093 9.2622 39.0571 9.2622H35.9803V6.6722H43.3509C43.5193 6.6722 43.6609 6.61387 43.7757 6.4972C43.8905 6.38054 43.9479 6.23665 43.9479 6.06554V3.61554C43.9479 3.44443 43.8905 3.30054 43.7757 3.18387C43.6609 3.0672 43.5193 3.00887 43.3509 3.00887H32.2376C32.0692 3.00887 31.9315 3.0672 31.8243 3.18387C31.7172 3.30054 31.6636 3.44443 31.6636 3.61554V18.7589C31.6636 18.9144 31.721 19.0505 31.8358 19.1672ZM38.6668 16.1922C39.2638 16.1922 39.7307 16.0016 40.0674 15.6205C40.4042 15.2394 40.5726 14.7689 40.5726 14.2089C40.5726 13.6644 40.408 13.2133 40.0789 12.8555C39.7498 12.4978 39.2791 12.3189 38.6668 12.3189H35.9803V16.1922H38.6668ZM60.1585 3.14887C60.0667 3.05554 59.9442 3.00887 59.7912 3.00887H56.6225C56.2857 3.00887 56.0561 3.1722 55.9337 3.49887L53.1783 9.86887L50.0097 3.49887C49.8413 3.1722 49.6193 3.00887 49.3438 3.00887H45.9685C45.8154 3.00887 45.6853 3.06331 45.5781 3.1722C45.471 3.28109 45.4174 3.40554 45.4174 3.54554C45.4174 3.62332 45.4404 3.68554 45.4863 3.7322L51.1118 14.4422C50.8669 14.8311 50.5952 15.1111 50.2967 15.2822C49.9982 15.4533 49.6346 15.5389 49.206 15.5389H48.3105C48.1421 15.5389 48.0044 15.5972 47.8972 15.7139C47.7901 15.8305 47.7365 15.9744 47.7365 16.1455V18.7589C47.7365 18.9144 47.7939 19.0505 47.9087 19.1672C48.0235 19.2839 48.1574 19.3422 48.3105 19.3422H49.5734C50.7215 19.3422 51.6437 19.1944 52.3402 18.8989C53.0367 18.6033 53.6261 18.125 54.1082 17.4639C54.5904 16.8028 55.0994 15.8422 55.6352 14.5822L60.1815 3.9422C60.258 3.78665 60.2963 3.63887 60.2963 3.49887C60.2963 3.35887 60.2504 3.2422 60.1585 3.14887ZM72.6265 19.3422C72.4734 19.3422 72.3395 19.2839 72.2247 19.1672C72.1099 19.0505 72.0525 18.9144 72.0525 18.7589V6.90554H67.9194V8.86554C67.9194 11.51 67.7511 13.5633 67.4143 15.0255C67.0775 16.4878 66.4538 17.565 65.543 18.2572C64.6322 18.9494 63.3042 19.3111 61.5592 19.3422C61.4061 19.3422 61.2683 19.28 61.1459 19.1555C61.0234 19.0311 60.9622 18.8911 60.9622 18.7355V16.1455C60.9622 15.8189 61.1535 15.6166 61.5362 15.5389C62.3475 15.3989 62.9215 14.7144 63.2583 13.4855C63.5951 12.2566 63.7635 10.53 63.7635 8.30554V3.5922C63.7635 3.42109 63.8209 3.28109 63.9357 3.1722C64.0505 3.06331 64.1921 3.00887 64.3605 3.00887H75.7722C75.9406 3.00887 76.0822 3.0672 76.197 3.18387C76.3118 3.30054 76.3692 3.44443 76.3692 3.61554V18.7589C76.3692 18.93 76.3118 19.07 76.197 19.1789C76.0822 19.2878 75.9406 19.3422 75.7722 19.3422H72.6265Z" fill="white" />
</svg>