<svg width="90" height="70" viewBox="0 0 90 70" fill="none" xmlns="http://www.w3.org/2000/svg">
<path id="why_i_1" fill-rule="evenodd" clip-rule="evenodd" d="M7.25806 0H82.7419C86.7505 0 90 3.26459 90 7.29167V62.7083C90 66.7354 86.7505 70 82.7419 70H7.25806C5.33311 70 3.48699 69.2318 2.12584 67.8643C0.764687 66.4969 0 64.6422 0 62.7083V7.29167C0 3.26459 3.24955 0 7.25806 0ZM82.7419 67.0833C85.1441 67.0761 87.0896 65.1216 87.0968 62.7083V11.6667H2.90323V62.7083C2.9104 65.1216 4.85593 67.0761 7.25806 67.0833H82.7419ZM87.0968 8.75H2.90323V7.29167C2.9104 4.87841 4.85593 2.92387 7.25806 2.91667H82.7419C85.1441 2.92387 87.0896 4.87841 87.0968 7.29167V8.75ZM31.9355 47.1771V45.0917C34.6222 43.5197 36.5757 40.938 37.3645 37.9167C38.1534 34.8953 37.7419 26.25 37.7419 26.25C37.7419 19.8067 32.5427 14.5833 26.129 14.5833C19.7154 14.5833 14.5161 19.8067 14.5161 26.25C14.5161 26.25 14.1047 34.8953 14.8935 37.9167C15.6824 40.938 17.6358 43.5197 20.3226 45.0917V47.1771L13.2823 50.3271C9.61993 51.9672 7.2601 55.6176 7.25806 59.6458V62.7083C7.25806 63.5137 7.90797 64.1667 8.70968 64.1667H43.5484C44.3501 64.1667 45 63.5137 45 62.7083V59.6458C44.998 55.6176 42.6381 51.9672 38.9758 50.3271L31.9355 47.1771ZM32.7048 50.7062L32.3565 52.0771L30.0629 51.3042L29.5258 50.2396L30.5129 49.7437L32.7048 50.7062ZM26.129 17.5C21.3188 17.5 17.4194 21.4175 17.4194 26.25V27.7083H24.6774C27.0796 27.7011 29.0251 25.7466 29.0323 23.3333C29.0345 22.5978 29.5816 21.9791 30.3083 21.8902C31.035 21.8013 31.714 22.2699 31.8919 22.9833L32.5161 25.5062C32.8008 26.6217 33.7096 27.4662 34.8387 27.6646V26.25C34.8387 21.4175 30.9393 17.5 26.129 17.5ZM17.4194 35V30.625H24.6774C26.903 30.622 29.0048 29.5958 30.3823 27.8396C31.3464 29.4186 33.0012 30.4421 34.8387 30.5958V35C34.8387 39.8325 30.9393 43.75 26.129 43.75C21.3188 43.75 17.4194 39.8325 17.4194 35ZM22.7323 50.2396L21.7452 49.7437L19.5532 50.7062L19.9016 52.0771L22.1952 51.3042L22.7323 50.2396ZM20.6855 61.25H10.1613V59.6458C10.1609 56.7635 11.8506 54.1515 14.4726 52.9812L16.8677 51.9167L17.4629 54.3083C17.5619 54.7046 17.8193 55.0423 18.1742 55.2417C18.3882 55.3577 18.6278 55.4179 18.871 55.4167C19.0284 55.4138 19.1847 55.3893 19.3355 55.3437L22.7613 54.1917L20.6855 61.25ZM25.1129 56.4521L23.7194 61.25H28.5387L27.1452 56.4521C26.584 57.0158 25.6741 57.0158 25.1129 56.4521ZM24.9968 52.2083L25.5774 51.0417H26.6806L27.2613 52.2083L26.129 53.3604L24.9968 52.2083ZM27.2323 48.125L29.0323 47.2208V46.2875C27.1295 46.7931 25.1286 46.7931 23.2258 46.2875V47.2208L25.0258 48.125H27.2323ZM42.0968 61.25H31.5726L29.4968 54.1917L32.9226 55.3437C33.0734 55.3893 33.2297 55.4138 33.3871 55.4167C33.6303 55.4179 33.8699 55.3577 34.0839 55.2417C34.4388 55.0423 34.6961 54.7046 34.7952 54.3083L35.3903 51.9167L37.7855 52.9812C40.4074 54.1515 42.0971 56.7635 42.0968 59.6458V61.25ZM47.9032 16.0417H53.7097V18.9583H47.9032V16.0417ZM62.4194 16.0417H59.5161V18.9583H62.4194V16.0417ZM65.3226 16.0417H68.2258V18.9583H65.3226V16.0417ZM74.0323 16.0417H71.129V18.9583H74.0323V16.0417ZM76.9355 16.0417H79.8387V18.9583H76.9355V16.0417ZM56.6129 35H47.9032V37.9167H56.6129V35ZM79.8387 29.1667H68.2258V32.0833H79.8387V29.1667ZM59.5161 35H79.8387V37.9167H59.5161V35ZM62.4194 43.75H59.5161V46.6667H62.4194V43.75ZM59.5161 29.1667H65.3226V32.0833H59.5161V29.1667ZM65.3226 43.75H68.2258V46.6667H65.3226V43.75ZM74.0323 43.75H71.129V46.6667H74.0323V43.75ZM76.9355 43.75H79.8387V46.6667H76.9355V43.75ZM68.2258 59.7917H74.0323V62.7083H68.2258V59.7917ZM79.8387 59.7917H76.9355V62.7083H79.8387V59.7917ZM65.3226 59.7917H59.5161V62.7083H65.3226V59.7917Z" fill="#499B30"/>
</svg>
