<svg width="85" height="85" viewBox="0 0 85 85" fill="none" xmlns="http://www.w3.org/2000/svg">
<path id="why_i_3" fill-rule="evenodd" clip-rule="evenodd" d="M83.5833 51.0001H75.3144L67.6541 48.4504L65.1667 42.2282V37.5418C65.157 34.301 62.7117 31.586 59.4903 31.238C59.4903 31.1407 59.4927 31.0435 59.4952 30.9463C59.4976 30.8493 59.5 30.7523 59.5 30.6556V9.91682C59.5 9.2908 59.0898 8.73949 58.4901 8.55964L30.1567 0.0596618C29.8911 -0.0198873 29.6089 -0.0198873 29.3433 0.0596618L1.00993 8.55964C0.410889 8.73949 0 9.2908 0 9.91682V30.6556C0 31.1029 0.0205145 31.5464 0.0410328 31.99C0.0506563 32.198 0.0602807 32.4061 0.0677896 32.6146C0.10376 33.5712 0.157023 34.5217 0.242106 35.4666C0.250516 35.5599 0.260549 35.6499 0.270594 35.7401C0.277899 35.8057 0.285212 35.8713 0.291911 35.9383C2.03162 53.9254 12.9292 69.7425 29.1171 77.7749C29.5155 77.9741 29.9845 77.9741 30.3836 77.7749C32.5024 76.711 34.5485 75.506 36.5061 74.1682C36.9509 74.7811 37.5126 75.2992 38.1594 75.6928C36.7448 77.3799 36.4356 79.7332 37.366 81.7288C38.2963 83.7238 40.2982 84.9993 42.5 85H66.5833C66.8635 85 67.1367 84.917 67.3698 84.762L75.5081 79.3333H83.5833C84.3657 79.3333 85 78.699 85 77.9167V52.4167C85 51.6344 84.3657 51.0001 83.5833 51.0001ZM52.9223 44.0399L54.5742 48.1667H46.3433C49.3516 42.7706 50.9495 36.702 50.9903 30.5235L56.6667 28.8211V30.6556C56.6667 30.8672 56.6619 31.0781 56.6572 31.2895L56.6572 31.2907L56.6572 31.2919L56.6571 31.2931C56.6551 31.3832 56.6531 31.4734 56.6514 31.5638C54.1197 32.4631 52.425 34.8551 52.4167 37.5418V41.4078C52.416 42.3099 52.5875 43.2029 52.9223 44.0399ZM34.1418 57.7195C33.1429 56.6723 32.5847 55.2805 32.5833 53.8334C32.5833 50.704 35.1206 48.1667 38.25 48.1667H43.0396C46.1779 43.1157 47.9322 37.3273 48.1259 31.3833L13.3608 41.8132C15.8898 48.8329 20.6662 54.8219 26.9478 58.8484L29.75 60.649L32.5577 58.8526C32.962 58.5889 33.351 58.3018 33.7403 58.0145C33.8739 57.9159 34.0075 57.8173 34.1418 57.7195ZM3.60254 39.2946C3.59633 39.2546 3.58947 39.2149 3.58268 39.1756C3.57738 39.1448 3.57212 39.1144 3.56726 39.0843L9.19727 37.4C9.36397 38.2501 9.56665 39.1002 9.79354 39.9303L4.0826 41.6444C3.89583 40.8316 3.74158 40.0562 3.60254 39.2946ZM8.55257 31.9221L2.94954 33.6037C2.99174 34.3923 3.05745 35.1339 3.12939 35.8643C3.13743 35.9351 3.1444 36.0052 3.15137 36.0753C3.15701 36.1319 3.16264 36.1886 3.16882 36.2455L8.7594 34.568C8.65702 33.693 8.592 32.8103 8.55257 31.9221ZM48.1667 16.6515V17.0797L11.3333 28.1294V17.999L29.7984 11.4047L48.1667 16.6515ZM48.1667 22.7463V20.0375L11.3589 31.0803C11.3818 31.972 11.4371 32.8581 11.5263 33.7379L48.1667 22.7463ZM56.6667 23.1545V25.8626L51 27.5629V24.854L56.6667 23.1545ZM51 21.8962L56.6667 20.1959V17.4878L51 19.1874V21.8962ZM11.9227 36.5768L34.9747 29.6623L48.1667 25.7042V28.413L12.5065 39.1113C12.2824 38.2757 12.0825 37.4325 11.9227 36.5768ZM29.75 2.89576L2.83333 10.971V30.6798L8.5 28.9795V17.0001C8.5 16.4011 8.8763 15.8671 9.44075 15.6658L29.2741 8.58247C29.5522 8.48217 29.8558 8.47318 30.1394 8.55549L49.9728 14.2221C50.5808 14.3958 51 14.9512 51 15.5835V16.2296L56.6667 14.5293V10.971L29.75 2.89576ZM29.75 74.9104C17.5479 68.6427 8.4917 57.5936 4.74044 44.3982L10.6437 42.6274C13.3677 50.2959 18.564 56.8403 25.4149 61.2315L28.9836 63.5252C29.4505 63.8254 30.0495 63.8254 30.5164 63.5252L34.0851 61.2315L34.1217 61.2072C33.623 63.5577 34.6793 65.9643 36.7469 67.1886C35.887 68.2082 35.416 69.4997 35.4167 70.8334C35.4194 71.0305 35.4326 71.227 35.4561 71.4227C33.6341 72.7114 31.7284 73.877 29.75 74.9104ZM42.5 82.1667H66.1586L73.6667 77.1585V53.4384L66.1358 50.9281C65.7408 50.7953 65.4233 50.4965 65.267 50.1105L62.4336 43.0272C62.3679 42.8591 62.3333 42.6806 62.3333 42.5001V37.5418C62.3333 35.5855 60.7479 34.0001 58.7917 34.0001C56.8354 34.0001 55.25 35.5855 55.25 37.5418V41.4078C55.2493 41.9495 55.3524 42.4856 55.5544 42.9878L57.983 49.0563C58.158 49.4935 58.1048 49.9881 57.8405 50.3775C57.577 50.7676 57.137 51.0008 56.6667 51.0001H38.25C36.6853 51.0001 35.4167 52.2687 35.4167 53.8334C35.4167 55.3981 36.6853 56.6667 38.25 56.6667H39.6667C40.449 56.6667 41.0833 57.301 41.0833 58.0834C41.0833 58.8657 40.449 59.5001 39.6667 59.5001C38.102 59.5001 36.8333 60.7687 36.8333 62.3334C36.8333 63.8981 38.102 65.1667 39.6667 65.1667H41.0833C41.8657 65.1667 42.5 65.801 42.5 66.5834C42.5 67.3657 41.8657 68 41.0833 68C39.5186 68 38.25 69.2687 38.25 70.8334C38.25 72.3981 39.5186 73.6667 41.0833 73.6667H42.1445C42.906 73.666 43.5314 74.2671 43.5611 75.028C43.5943 75.7931 43.0264 76.4509 42.2648 76.5298C40.7976 76.6391 39.6639 77.8627 39.6667 79.3333C39.6667 80.898 40.9353 82.1667 42.5 82.1667ZM82.1667 76.5H76.5V53.8334H82.1667V76.5ZM72.6083 20.2589L74.5452 18.1899C75.2777 18.8761 75.9667 19.6073 76.6079 20.3792L74.429 22.1909C73.8631 21.5095 73.2551 20.8641 72.6083 20.2589ZM82.1667 35.7695C82.1667 35.2141 82.148 34.6642 82.1099 34.1191L79.2835 34.3107C79.316 34.7921 79.3326 35.2784 79.3333 35.7695C79.3333 36.1708 79.3223 36.5699 79.2994 36.9655L82.1328 37.1281C82.1556 36.6778 82.1667 36.2247 82.1667 35.7695ZM69.6885 14.6614C70.5684 15.1463 71.4165 15.6859 72.2286 16.2766L70.5615 18.5586C69.8448 18.0405 69.0971 17.5674 68.3217 17.1419L69.6885 14.6614ZM81.7758 40.1115L78.9875 39.6045C78.8298 40.4754 78.6167 41.3352 78.3504 42.1784L81.0502 43.0286C81.3532 42.0726 81.5953 41.0986 81.7758 40.1115ZM64.1028 12.4444C65.076 12.6941 66.032 13.0054 66.9659 13.3762L65.9193 16.0103C65.0954 15.6838 64.2522 15.4098 63.3945 15.1885L64.1028 12.4444ZM76.6771 46.0632L79.1562 47.437C79.4399 46.9175 79.7228 46.3848 79.9649 45.8391L77.3923 44.6548C77.1751 45.1335 76.9372 45.6032 76.6771 46.0632ZM77.2837 26.6505C76.9026 25.8522 76.473 25.0782 75.9971 24.3332L78.3829 22.8058C78.9238 23.6504 79.4108 24.5289 79.8418 25.4351L77.2837 26.6505ZM78.2708 29.111C78.5468 29.9514 78.7703 30.8085 78.9397 31.6766L81.7205 31.137C81.5289 30.1513 81.2757 29.1781 80.961 28.2242L78.2708 29.111ZM69.4167 35.4168C69.4284 31.7146 67.1727 28.3826 63.7299 27.0192L63.2229 26.8151L64.2771 24.1858L64.7828 24.3878C69.3032 26.1787 72.2666 30.5546 72.25 35.4168H69.4167Z" fill="#499B30"/>
</svg>
