<svg width="85" height="85" viewBox="0 0 85 85" fill="none" xmlns="http://www.w3.org/2000/svg">
<path id="why_i_2" fill-rule="evenodd" clip-rule="evenodd" d="M70.8333 7.91918L48.6342 0.0850172C48.4849 0.0282455 48.3264 -0.000567622 48.1667 1.71978e-05H26.9167C26.763 0.00276895 26.6105 0.0266026 26.4633 0.0708505L11.3333 5.11418V2.83335C11.3333 2.05095 10.6991 1.41668 9.91667 1.41668H1.41667C0.634263 1.41668 0 2.05095 0 2.83335V34C0 34.7824 0.634263 35.4167 1.41667 35.4167H9.91667C10.6991 35.4167 11.3333 34.7824 11.3333 34V31.1667H19.8333C19.9678 31.1697 20.1018 31.1506 20.23 31.11L42.2875 24.6217C44.091 24.0816 45.3282 22.4243 45.3333 20.5417V19.8333C45.3263 17.489 43.4276 15.5903 41.0833 15.5833H29.5517L37.2017 11.3333H47.9683L68.2125 17.2975C69.5013 17.6711 70.8908 17.4194 71.9667 16.6175C73.0397 15.8172 73.6703 14.5561 73.6667 13.2175V11.9283C73.6676 10.1265 72.5322 8.51981 70.8333 7.91918ZM8.5 32.5833H2.83333V4.25002H8.5V32.5833ZM70.2667 14.3508C70.6234 14.0833 70.8333 13.6634 70.8333 13.2175V11.9283C70.837 11.323 70.4556 10.7823 69.8842 10.5825L47.9258 2.83335H27.1433L11.3333 8.10335V28.3333H19.635L41.48 21.9017C42.0822 21.7221 42.4963 21.1701 42.5 20.5417V19.8333C42.5 19.0509 41.8657 18.4167 41.0833 18.4167H24.0833C23.4408 18.4147 22.8801 17.9806 22.7172 17.3591C22.5544 16.7376 22.8302 16.0843 23.3892 15.7675L36.1392 8.68418C36.3495 8.56085 36.5895 8.49718 36.8333 8.50001H48.1667C48.3011 8.49696 48.4351 8.5161 48.5633 8.55668L69.02 14.5775C69.4481 14.7024 69.9099 14.6184 70.2667 14.3508ZM83.5833 49.5833H75.0833C74.3009 49.5833 73.6667 50.2176 73.6667 51V53.8333H65.1667C65.0322 53.8303 64.8982 53.8494 64.77 53.89L42.7125 60.3783C40.909 60.9184 39.6718 62.5757 39.6667 64.4583V65.1667C39.6737 67.511 41.5724 69.4097 43.9167 69.4167H55.4483L47.7983 73.6667H37.0317L16.7875 67.7025C15.4987 67.3289 14.1092 67.5806 13.0333 68.3825C11.9603 69.1828 11.3297 70.4439 11.3333 71.7825V73.0717C11.3324 74.8736 12.4678 76.4802 14.1667 77.0808L36.3658 84.915C36.5151 84.9718 36.6736 85.0006 36.8333 85H58.0833C58.237 84.9972 58.3895 84.9734 58.5367 84.9292L73.6667 79.8858V82.1667C73.6667 82.9491 74.3009 83.5833 75.0833 83.5833H83.5833C84.3657 83.5833 85 82.9491 85 82.1667V51C85 50.2176 84.3657 49.5833 83.5833 49.5833ZM73.6667 76.8967L57.8567 82.1667H37.0742L15.1158 74.4175C14.5444 74.2177 14.163 73.677 14.1667 73.0717V71.7825C14.1667 71.3366 14.3766 70.9167 14.7333 70.6492C15.0901 70.3816 15.5519 70.2976 15.98 70.4225L36.4367 76.4433C36.5649 76.4839 36.6989 76.503 36.8333 76.5H48.1667C48.4105 76.5028 48.6505 76.4392 48.8608 76.3158L61.6108 69.2325C62.1698 68.9157 62.4456 68.2624 62.2828 67.6409C62.1199 67.0194 61.5592 66.5853 60.9167 66.5833H43.9167C43.1343 66.5833 42.5 65.9491 42.5 65.1667V64.4583C42.5037 63.8299 42.9178 63.2779 43.52 63.0983L65.365 56.6667H73.6667V76.8967ZM76.5 80.75H82.1667V52.4167H76.5V80.75ZM49.5833 29.75C46.6379 29.7091 43.9116 31.3012 42.5 33.8867C41.0884 31.3012 38.3621 29.7091 35.4167 29.75C30.7222 29.75 26.9167 33.5556 26.9167 38.25V39.6667C26.9167 50.3342 41.2533 57.63 41.8625 57.9275C42.2621 58.1354 42.7379 58.1354 43.1375 57.9275C43.7467 57.63 58.0833 50.3342 58.0833 39.6667V38.25C58.0833 33.5556 54.2778 29.75 49.5833 29.75ZM55.25 39.6667C55.25 47.4442 45.1633 53.5783 42.5 55.0658C39.8367 53.5783 29.75 47.4442 29.75 39.6667V38.25C29.75 35.1204 32.2871 32.5833 35.4167 32.5833C38.8025 32.5833 41.0833 35.4308 41.0833 39.6667C41.0833 40.4491 41.7176 41.0833 42.5 41.0833C43.2824 41.0833 43.9167 40.4491 43.9167 39.6667C43.9167 35.4308 46.1975 32.5833 49.5833 32.5833C52.7129 32.5833 55.25 35.1204 55.25 38.25V39.6667ZM60.9167 41.0833H63.75V43.9167H60.9167V41.0833ZM75.0833 43.9167V41.0833H66.5833V43.9167H75.0833ZM54.5129 28.478L56.5161 26.4748L58.5193 28.478L56.5161 30.4812L54.5129 28.478ZM64.5277 18.4637L58.5182 24.4732L60.5214 26.4764L66.5309 20.4669L64.5277 18.4637ZM21.25 41.0833H24.0833V43.9167H21.25V41.0833ZM18.4167 41.0833H9.91667V43.9167H18.4167V41.0833ZM26.4643 56.522L28.4675 54.5188L30.4707 56.522L28.4675 58.5252L26.4643 56.522ZM24.4587 58.5236L18.4492 64.5331L20.4524 66.5363L26.4619 60.5268L24.4587 58.5236Z" fill="#499B30"/>
</svg>
